<svg width="185" height="65" viewBox="0 0 185 65" fill="none" xmlns="http://www.w3.org/2000/svg">
<path opacity="0.6" d="M19.938 42.74C20.6787 42.74 21.2727 42.9307 21.72 43.312C22.1673 43.6933 22.391 44.2103 22.391 44.863C22.391 45.5157 22.1637 46.0253 21.709 46.392C21.2617 46.7513 20.6677 46.931 19.927 46.931L19.85 46.986H18.068V50H17.188V42.74H19.938ZM19.927 46.161C20.4477 46.161 20.8327 46.0547 21.082 45.842C21.3387 45.622 21.467 45.2957 21.467 44.863C21.467 44.4303 21.3387 44.1077 21.082 43.895C20.8327 43.675 20.4477 43.565 19.927 43.565H18.068V46.161H19.927ZM20.433 46.337L22.831 50H21.786L19.696 46.821L20.433 46.337ZM26.4548 50.11C25.9341 50.11 25.4685 49.9963 25.0578 49.769C24.6545 49.5417 24.3391 49.2153 24.1118 48.79C23.8845 48.3573 23.7708 47.844 23.7708 47.25C23.7708 46.656 23.8845 46.1463 24.1118 45.721C24.3391 45.2883 24.6508 44.9583 25.0468 44.731C25.4428 44.5037 25.8938 44.39 26.3998 44.39C26.9131 44.39 27.3495 44.5 27.7088 44.72C28.0755 44.94 28.3541 45.2407 28.5448 45.622C28.7355 45.996 28.8308 46.4177 28.8308 46.887C28.8308 47.0117 28.8271 47.1253 28.8198 47.228C28.8125 47.3307 28.8015 47.4223 28.7868 47.503H24.3428V46.722H28.4018L27.9508 46.81C27.9508 46.282 27.8041 45.875 27.5108 45.589C27.2248 45.303 26.8471 45.16 26.3778 45.16C26.0185 45.16 25.7068 45.2443 25.4428 45.413C25.1861 45.5743 24.9845 45.8127 24.8378 46.128C24.6985 46.436 24.6288 46.81 24.6288 47.25C24.6288 47.6827 24.7021 48.0567 24.8488 48.372C24.9955 48.6873 25.2008 48.9293 25.4648 49.098C25.7361 49.2593 26.0588 49.34 26.4328 49.34C26.8361 49.34 27.1625 49.263 27.4118 49.109C27.6685 48.955 27.8738 48.746 28.0278 48.482L28.7208 48.889C28.5815 49.1383 28.4018 49.3547 28.1818 49.538C27.9691 49.7213 27.7161 49.8643 27.4228 49.967C27.1368 50.0623 26.8141 50.11 26.4548 50.11ZM33.7164 46.447C33.7164 46.0363 33.6064 45.721 33.3864 45.501C33.1664 45.2737 32.8548 45.16 32.4514 45.16C32.0701 45.16 31.7474 45.2443 31.4834 45.413C31.2194 45.5743 31.0251 45.8383 30.9004 46.205L30.1854 45.765C30.3321 45.3543 30.6034 45.0243 30.9994 44.775C31.3954 44.5183 31.8868 44.39 32.4734 44.39C32.8694 44.39 33.2288 44.4597 33.5514 44.599C33.8741 44.731 34.1271 44.9363 34.3104 45.215C34.5011 45.4863 34.5964 45.8383 34.5964 46.271V48.933C34.5964 49.197 34.7358 49.329 35.0144 49.329C35.1538 49.329 35.2894 49.3107 35.4214 49.274L35.3774 49.967C35.2308 50.0403 35.0401 50.077 34.8054 50.077C34.5928 50.077 34.4021 50.0367 34.2334 49.956C34.0648 49.8753 33.9328 49.7543 33.8374 49.593C33.7421 49.4243 33.6944 49.2153 33.6944 48.966V48.856L33.9144 48.889C33.8264 49.175 33.6761 49.4097 33.4634 49.593C33.2508 49.769 33.0124 49.901 32.7484 49.989C32.4844 50.0697 32.2241 50.11 31.9674 50.11C31.6448 50.11 31.3441 50.055 31.0654 49.945C30.7868 49.835 30.5631 49.67 30.3944 49.45C30.2331 49.2227 30.1524 48.944 30.1524 48.614C30.1524 48.2033 30.2881 47.866 30.5594 47.602C30.8381 47.3307 31.2231 47.1473 31.7144 47.052L33.8924 46.623V47.349L32.1214 47.712C31.7621 47.7853 31.4944 47.888 31.3184 48.02C31.1424 48.152 31.0544 48.3353 31.0544 48.57C31.0544 48.7973 31.1424 48.9843 31.3184 49.131C31.5018 49.2703 31.7584 49.34 32.0884 49.34C32.3011 49.34 32.5028 49.3143 32.6934 49.263C32.8914 49.2043 33.0674 49.12 33.2214 49.01C33.3754 48.8927 33.4964 48.7497 33.5844 48.581C33.6724 48.405 33.7164 48.1997 33.7164 47.965V46.447ZM37.5709 41.97V48.603C37.5709 48.8817 37.6222 49.076 37.7249 49.186C37.8276 49.2887 37.9926 49.34 38.2199 49.34C38.3666 49.34 38.4876 49.329 38.5829 49.307C38.6782 49.285 38.8066 49.2447 38.9679 49.186L38.8249 49.956C38.7076 50.0073 38.5792 50.044 38.4399 50.066C38.3006 50.0953 38.1576 50.11 38.0109 50.11C37.5636 50.11 37.2299 49.989 37.0099 49.747C36.7972 49.505 36.6909 49.1347 36.6909 48.636V41.97H37.5709ZM43.6245 50V42.74H48.7175V43.565H44.5045V45.908H47.7825V46.733H44.5045V49.175H48.8825V50H43.6245ZM52.4542 50.11C51.9188 50.11 51.4238 49.9963 50.9692 49.769C50.5218 49.5417 50.1772 49.219 49.9352 48.801L50.6832 48.262C50.8445 48.5993 51.0792 48.8633 51.3872 49.054C51.7025 49.2447 52.0802 49.34 52.5202 49.34C52.9088 49.34 53.2132 49.2667 53.4332 49.12C53.6532 48.966 53.7632 48.768 53.7632 48.526C53.7632 48.372 53.7118 48.2327 53.6092 48.108C53.5138 47.976 53.3268 47.8807 53.0482 47.822L51.7282 47.547C51.1928 47.437 50.8078 47.2537 50.5732 46.997C50.3458 46.7403 50.2322 46.4213 50.2322 46.04C50.2322 45.7393 50.3165 45.4643 50.4852 45.215C50.6612 44.9657 50.9068 44.7677 51.2222 44.621C51.5448 44.467 51.9225 44.39 52.3552 44.39C52.8978 44.39 53.3562 44.4963 53.7302 44.709C54.1042 44.9217 54.3828 45.2223 54.5662 45.611L53.8292 46.095C53.7045 45.7723 53.5028 45.5377 53.2242 45.391C52.9455 45.237 52.6558 45.16 52.3552 45.16C52.0912 45.16 51.8638 45.1967 51.6732 45.27C51.4898 45.3433 51.3468 45.446 51.2442 45.578C51.1488 45.7027 51.1012 45.8457 51.1012 46.007C51.1012 46.1683 51.1562 46.3187 51.2662 46.458C51.3762 46.59 51.5815 46.6853 51.8822 46.744L53.2572 47.03C53.7705 47.1327 54.1298 47.3013 54.3352 47.536C54.5405 47.7707 54.6432 48.0567 54.6432 48.394C54.6432 48.7387 54.5515 49.043 54.3682 49.307C54.1848 49.5637 53.9282 49.7617 53.5982 49.901C53.2682 50.0403 52.8868 50.11 52.4542 50.11ZM57.573 42.938V48.482C57.573 48.7533 57.65 48.955 57.804 49.087C57.958 49.219 58.156 49.285 58.398 49.285C58.6106 49.285 58.794 49.2483 58.948 49.175C59.102 49.1017 59.2413 49.0027 59.366 48.878L59.674 49.615C59.5053 49.769 59.3036 49.89 59.069 49.978C58.8416 50.066 58.5776 50.11 58.277 50.11C57.9983 50.11 57.738 50.0623 57.496 49.967C57.254 49.8643 57.0596 49.7067 56.913 49.494C56.7736 49.274 56.7003 48.988 56.693 48.636V43.18L57.573 42.938ZM59.575 44.5V45.259H55.593V44.5H59.575ZM64.0954 46.447C64.0954 46.0363 63.9854 45.721 63.7654 45.501C63.5454 45.2737 63.2337 45.16 62.8304 45.16C62.449 45.16 62.1264 45.2443 61.8624 45.413C61.5984 45.5743 61.404 45.8383 61.2794 46.205L60.5644 45.765C60.711 45.3543 60.9824 45.0243 61.3784 44.775C61.7744 44.5183 62.2657 44.39 62.8524 44.39C63.2484 44.39 63.6077 44.4597 63.9304 44.599C64.253 44.731 64.506 44.9363 64.6894 45.215C64.88 45.4863 64.9754 45.8383 64.9754 46.271V48.933C64.9754 49.197 65.1147 49.329 65.3934 49.329C65.5327 49.329 65.6684 49.3107 65.8004 49.274L65.7564 49.967C65.6097 50.0403 65.419 50.077 65.1844 50.077C64.9717 50.077 64.781 50.0367 64.6124 49.956C64.4437 49.8753 64.3117 49.7543 64.2164 49.593C64.121 49.4243 64.0734 49.2153 64.0734 48.966V48.856L64.2934 48.889C64.2054 49.175 64.055 49.4097 63.8424 49.593C63.6297 49.769 63.3914 49.901 63.1274 49.989C62.8634 50.0697 62.603 50.11 62.3464 50.11C62.0237 50.11 61.723 50.055 61.4444 49.945C61.1657 49.835 60.942 49.67 60.7734 49.45C60.612 49.2227 60.5314 48.944 60.5314 48.614C60.5314 48.2033 60.667 47.866 60.9384 47.602C61.217 47.3307 61.602 47.1473 62.0934 47.052L64.2714 46.623V47.349L62.5004 47.712C62.141 47.7853 61.8734 47.888 61.6974 48.02C61.5214 48.152 61.4334 48.3353 61.4334 48.57C61.4334 48.7973 61.5214 48.9843 61.6974 49.131C61.8807 49.2703 62.1374 49.34 62.4674 49.34C62.68 49.34 62.8817 49.3143 63.0724 49.263C63.2704 49.2043 63.4464 49.12 63.6004 49.01C63.7544 48.8927 63.8754 48.7497 63.9634 48.581C64.0514 48.405 64.0954 48.1997 64.0954 47.965V46.447ZM68.197 42.938V48.482C68.197 48.7533 68.274 48.955 68.428 49.087C68.582 49.219 68.78 49.285 69.022 49.285C69.2346 49.285 69.418 49.2483 69.572 49.175C69.726 49.1017 69.8653 49.0027 69.99 48.878L70.298 49.615C70.1293 49.769 69.9276 49.89 69.693 49.978C69.4656 50.066 69.2016 50.11 68.901 50.11C68.6223 50.11 68.362 50.0623 68.12 49.967C67.878 49.8643 67.6836 49.7067 67.537 49.494C67.3976 49.274 67.3243 48.988 67.317 48.636V43.18L68.197 42.938ZM70.199 44.5V45.259H66.217V44.5H70.199ZM73.8064 50.11C73.2857 50.11 72.82 49.9963 72.4094 49.769C72.006 49.5417 71.6907 49.2153 71.4634 48.79C71.236 48.3573 71.1224 47.844 71.1224 47.25C71.1224 46.656 71.236 46.1463 71.4634 45.721C71.6907 45.2883 72.0024 44.9583 72.3984 44.731C72.7944 44.5037 73.2454 44.39 73.7514 44.39C74.2647 44.39 74.701 44.5 75.0604 44.72C75.427 44.94 75.7057 45.2407 75.8964 45.622C76.087 45.996 76.1824 46.4177 76.1824 46.887C76.1824 47.0117 76.1787 47.1253 76.1714 47.228C76.164 47.3307 76.153 47.4223 76.1384 47.503H71.6944V46.722H75.7534L75.3024 46.81C75.3024 46.282 75.1557 45.875 74.8624 45.589C74.5764 45.303 74.1987 45.16 73.7294 45.16C73.37 45.16 73.0584 45.2443 72.7944 45.413C72.5377 45.5743 72.336 45.8127 72.1894 46.128C72.05 46.436 71.9804 46.81 71.9804 47.25C71.9804 47.6827 72.0537 48.0567 72.2004 48.372C72.347 48.6873 72.5524 48.9293 72.8164 49.098C73.0877 49.2593 73.4104 49.34 73.7844 49.34C74.1877 49.34 74.514 49.263 74.7634 49.109C75.02 48.955 75.2254 48.746 75.3794 48.482L76.0724 48.889C75.933 49.1383 75.7534 49.3547 75.5334 49.538C75.3207 49.7213 75.0677 49.8643 74.7744 49.967C74.4884 50.0623 74.1657 50.11 73.8064 50.11Z" fill="white"/>
<path d="M18.184 15.372H23.448C25.5573 15.372 27.1627 15.9507 28.264 17.108C29.384 18.2653 29.944 19.8053 29.944 21.728V29.4C29.944 33.1333 27.9653 35 24.008 35H18.184V15.372ZM28.376 21.448C28.376 20.384 28.1427 19.5067 27.676 18.816C27.228 18.1067 26.6493 17.5933 25.94 17.276C25.2307 16.9587 24.4933 16.8 23.728 16.8H19.752V33.6H23.56C24.9227 33.6 26.0613 33.3387 26.976 32.816C27.9093 32.2747 28.376 31.2293 28.376 29.68V21.448ZM42.1568 33.572C41.7088 34.132 41.1395 34.5613 40.4488 34.86C39.7768 35.1587 39.0955 35.308 38.4048 35.308C34.8955 35.308 33.1408 33.6 33.1408 30.184V20.972H34.7088V30.38C34.7088 31.5747 35.0355 32.4613 35.6888 33.04C36.3608 33.6187 37.2661 33.908 38.4048 33.908C39.5248 33.908 40.4021 33.628 41.0368 33.068C41.6901 32.4893 42.0168 31.5933 42.0168 30.38V20.972H43.5848V35H42.0448L42.1568 33.572ZM57.1723 30.604C57.1723 31.556 56.9763 32.3587 56.5843 33.012C56.1923 33.6653 55.6603 34.16 54.9883 34.496C54.3909 34.7947 53.7843 35.0093 53.1683 35.14C52.5709 35.2707 51.9269 35.336 51.2363 35.336C50.5456 35.336 49.5936 35.2707 48.3803 35.14L46.8403 35V15.4H48.4083V21.728C48.8563 21.4107 49.3976 21.168 50.0323 21C50.6856 20.832 51.3576 20.748 52.0482 20.748C53.1123 20.748 54.0269 20.9253 54.7923 21.28C56.3789 22.008 57.1723 23.352 57.1723 25.312V30.604ZM55.6323 25.396C55.6323 24.2573 55.2963 23.436 54.6243 22.932C53.9709 22.4093 53.1216 22.148 52.0763 22.148C51.4416 22.148 50.7976 22.2413 50.1443 22.428C49.4909 22.596 48.9123 22.82 48.4083 23.1V33.656C49.5096 33.824 50.4149 33.908 51.1243 33.908C54.1296 33.908 55.6323 32.816 55.6323 30.632V25.396ZM69.9254 35C67.9094 35.2053 66.4534 35.308 65.5574 35.308C63.5974 35.308 62.0387 34.944 60.8814 34.216C59.724 33.488 59.1454 32.172 59.1454 30.268V27.944C59.1454 26.096 59.7894 24.8547 61.0774 24.22C61.6934 23.9027 62.4774 23.744 63.4294 23.744C64.3067 23.744 65.1934 23.8933 66.0894 24.192C66.9854 24.472 67.7414 24.8453 68.3574 25.312C68.3574 24.2853 68.0587 23.4733 67.4614 22.876C66.864 22.26 65.716 21.952 64.0174 21.952L64.1014 20.748C65.8934 20.748 67.2094 21.0373 68.0494 21.616C68.908 22.176 69.4307 22.848 69.6174 23.632C69.8227 24.416 69.9254 25.424 69.9254 26.656V35ZM68.3574 26.516C67.592 26.1613 66.7707 25.8533 65.8934 25.592C65.0347 25.3307 64.2414 25.2 63.5134 25.2C61.628 25.2 60.6854 26.1427 60.6854 28.028V30.464C60.6854 31.6773 61.1054 32.564 61.9454 33.124C62.7854 33.6653 63.98 33.936 65.5294 33.936C66.332 33.936 67.2747 33.8613 68.3574 33.712V26.516ZM74.0696 16.996C73.8269 16.996 73.6029 16.9027 73.3976 16.716C73.2109 16.5107 73.1176 16.2867 73.1176 16.044C73.1176 15.8013 73.2109 15.5867 73.3976 15.4C73.5843 15.2133 73.8083 15.12 74.0696 15.12C74.3309 15.12 74.5456 15.2133 74.7136 15.4C74.9003 15.568 74.9936 15.7827 74.9936 16.044C74.9936 16.3053 74.9003 16.5293 74.7136 16.716C74.5269 16.9027 74.3123 16.996 74.0696 16.996ZM73.2576 20.972H74.8256V35H73.2576V20.972ZM87.6107 28.056C87.2747 28.112 86.9013 28.14 86.4907 28.14H80.9747V35H79.4067V15.4H86.2947C88.068 15.4 89.384 15.9413 90.2427 17.024C91.12 18.1067 91.5587 19.5627 91.5587 21.392C91.5587 22.792 91.4 24.0333 91.0827 25.116C90.784 26.1987 90.1213 27.02 89.0947 27.58L91.5867 35H89.9907L87.6107 28.056ZM86.5187 26.6C87.564 26.6 88.3387 26.32 88.8427 25.76C89.3653 25.2 89.6827 24.5653 89.7947 23.856C89.9253 23.1467 89.9907 22.3533 89.9907 21.476C89.9907 19.9453 89.6733 18.7973 89.0387 18.032C88.404 17.2667 87.5267 16.884 86.4067 16.884H80.9747V26.6H86.5187ZM103.387 34.02C102.715 34.4493 101.95 34.776 101.091 35C100.233 35.224 99.374 35.336 98.5153 35.336C97.134 35.336 96.0327 35 95.2113 34.328C94.4087 33.6373 94.0073 32.6107 94.0073 31.248V25.508C94.0073 23.996 94.474 22.82 95.4073 21.98C96.3593 21.14 97.61 20.72 99.1593 20.72C100.709 20.72 101.913 21.14 102.771 21.98C103.649 22.8013 104.087 23.9493 104.087 25.424V29.064L95.5753 29.54V31.248C95.5753 32.144 95.8647 32.816 96.4433 33.264C97.022 33.712 97.778 33.936 98.7113 33.936C100.018 33.936 101.371 33.5627 102.771 32.816L103.387 34.02ZM102.519 25.228C102.519 24.0707 102.155 23.2587 101.427 22.792C100.699 22.3067 99.934 22.064 99.1313 22.064C98.1047 22.064 97.2553 22.344 96.5833 22.904C95.9113 23.464 95.5753 24.3413 95.5753 25.536V28L102.519 27.664V25.228ZM116.984 35C114.968 35.2053 113.512 35.308 112.616 35.308C110.656 35.308 109.097 34.944 107.94 34.216C106.783 33.488 106.204 32.172 106.204 30.268V27.944C106.204 26.096 106.848 24.8547 108.136 24.22C108.752 23.9027 109.536 23.744 110.488 23.744C111.365 23.744 112.252 23.8933 113.148 24.192C114.044 24.472 114.8 24.8453 115.416 25.312C115.416 24.2853 115.117 23.4733 114.52 22.876C113.923 22.26 112.775 21.952 111.076 21.952L111.16 20.748C112.952 20.748 114.268 21.0373 115.108 21.616C115.967 22.176 116.489 22.848 116.676 23.632C116.881 24.416 116.984 25.424 116.984 26.656V35ZM115.416 26.516C114.651 26.1613 113.829 25.8533 112.952 25.592C112.093 25.3307 111.3 25.2 110.572 25.2C108.687 25.2 107.744 26.1427 107.744 28.028V30.464C107.744 31.6773 108.164 32.564 109.004 33.124C109.844 33.6653 111.039 33.936 112.588 33.936C113.391 33.936 114.333 33.8613 115.416 33.712V26.516ZM120.176 15.4H121.744V35H120.176V15.4ZM128.18 35.364C127.135 35.0653 126.379 34.5893 125.912 33.936C125.446 33.2827 125.212 32.4053 125.212 31.304V15.4H126.78V20.972H130.14L129.468 22.456H126.78V31.304C126.78 32.7973 127.396 33.7493 128.628 34.16L128.18 35.364ZM138.965 39.676C140.216 39.2093 140.841 38.2387 140.841 36.764V33.628C140.486 34.2253 139.954 34.664 139.245 34.944C138.536 35.2053 137.77 35.336 136.949 35.336C135.306 35.336 134.037 34.8973 133.141 34.02C132.264 33.124 131.825 31.808 131.825 30.072V20.972H133.337V30.352C133.337 31.5467 133.664 32.4427 134.317 33.04C134.97 33.6187 135.848 33.908 136.949 33.908C138.106 33.908 139.04 33.6187 139.749 33.04C140.458 32.4613 140.813 31.5653 140.813 30.352V24.836C140.813 23.94 140.841 23.2773 140.897 22.848C140.953 22.4 141.121 21.9893 141.401 21.616C141.7 21.224 142.185 20.9253 142.857 20.72L143.277 21.784C142.642 22.064 142.325 22.7173 142.325 23.744V36.708C142.325 37.8467 142.101 38.7427 141.653 39.396C141.205 40.0493 140.449 40.544 139.385 40.88L138.965 39.676Z" fill="white"/>
<path d="M41 1L1 1V32.5V64H41" stroke="#FCD54C" stroke-width="2"/>
</svg>
